<svg class="main-svg" xmlns="http://www.w3.org/2000/svg" xmlns:xlink="http://www.w3.org/1999/xlink" width="700" height="500" style="" viewBox="0 0 700 500"><rect x="0" y="0" width="700" height="500" style="fill: rgb(255, 255, 255); fill-opacity: 1;"/><defs id="defs-35704f"><g class="clips"><clipPath id="clip35704fxyplot" class="plotclip"><rect width="447" height="320"/></clipPath><clipPath class="axesclip" id="clip35704fx"><rect x="80" y="0" width="447" height="500"/></clipPath><clipPath class="axesclip" id="clip35704fy"><rect x="0" y="100" width="700" height="320"/></clipPath><clipPath class="axesclip" id="clip35704fxy"><rect x="80" y="100" width="447" height="320"/></clipPath></g><g class="gradients"/><g class="patterns"/></defs><g class="bglayer"><rect class="bg" x="80" y="100" width="447" height="320" style="fill: rgb(229, 236, 246); fill-opacity: 1; stroke-width: 0;"/></g><g class="layer-below"><g class="imagelayer"/><g class="shapelayer"/></g><g class="cartesianlayer"><g class="subplot xy"><g class="layer-subplot"><g class="shapelayer"/><g class="imagelayer"/></g><g class="minor-gridlayer"><g class="x"/><g class="y"/></g><g class="gridlayer"><g class="x"><path class="xgrid crisp" transform="translate(221.92,0)" d="M0,100v320" style="stroke: rgb(255, 255, 255); stroke-opacity: 1; stroke-width: 1px;"/><path class="xgrid crisp" transform="translate(366.74,0)" d="M0,100v320" style="stroke: rgb(255, 255, 255); stroke-opacity: 1; stroke-width: 1px;"/><path class="xgrid crisp" transform="translate(511.56,0)" d="M0,100v320" style="stroke: rgb(255, 255, 255); stroke-opacity: 1; stroke-width: 1px;"/></g><g class="y"><path class="ygrid crisp" transform="translate(0,380)" d="M80,0h447" style="stroke: rgb(255, 255, 255); stroke-opacity: 1; stroke-width: 1px;"/><path class="ygrid crisp" transform="translate(0,340)" d="M80,0h447" style="stroke: rgb(255, 255, 255); stroke-opacity: 1; stroke-width: 1px;"/><path class="ygrid crisp" transform="translate(0,300)" d="M80,0h447" style="stroke: rgb(255, 255, 255); stroke-opacity: 1; stroke-width: 1px;"/><path class="ygrid crisp" transform="translate(0,260)" d="M80,0h447" style="stroke: rgb(255, 255, 255); stroke-opacity: 1; stroke-width: 1px;"/><path class="ygrid crisp" transform="translate(0,220)" d="M80,0h447" style="stroke: rgb(255, 255, 255); stroke-opacity: 1; stroke-width: 1px;"/><path class="ygrid crisp" transform="translate(0,180)" d="M80,0h447" style="stroke: rgb(255, 255, 255); stroke-opacity: 1; stroke-width: 1px;"/><path class="ygrid crisp" transform="translate(0,140)" d="M80,0h447" style="stroke: rgb(255, 255, 255); stroke-opacity: 1; stroke-width: 1px;"/></g></g><g class="zerolinelayer"/><g class="layer-between"><g class="shapelayer"/><g class="imagelayer"/></g><path class="xlines-below"/><path class="ylines-below"/><g class="overlines-below"/><g class="xaxislayer-below"/><g class="yaxislayer-below"/><g class="overaxes-below"/><g class="overplot"><g class="xy" transform="translate(80,100)" clip-path="url(#clip35704fxyplot)"><g class="scatterlayer mlayer"><g class="trace scatter trace95c578" style="stroke-miterlimit: 2; opacity: 1;"><g class="fills"/><g class="errorbars"/><g class="lines"><path class="js-line" d="M0,-1491.38L14.48,-305.25L17.38,-214.5L26.07,-87.38L28.96,-63.75L34.76,-24.62L37.65,-13.75L40.55,2.06L43.45,10.88L46.34,21.5L49.24,26.25L55.03,47.94L57.93,53.5L60.82,60.25L63.72,64.25L66.62,71.25L69.51,75.75L72.41,82.31L75.31,84.56L78.2,93.56L81.1,93.25L84,93.56L86.89,100.81L92.68,107.56L95.58,108L98.48,115.56L101.37,117.38L110.06,122L112.96,126.19L115.86,126.13L118.75,131.5L121.65,131.63L124.54,138.56L127.44,136.06L130.34,138.44L133.23,141.5L136.13,142.94L139.03,142L141.92,146.19L144.82,151.56L147.72,149.63L153.51,157.31L156.41,155.44L159.3,160.38L162.2,163.44L167.99,162.25L170.89,165.81L179.58,170.81L182.47,174.19L191.16,177.63L194.06,179.5L202.75,182.94L205.64,184.56L208.54,182.69L211.44,187.5L214.33,186.94L217.23,194.19L220.13,189.75L223.02,193.69L225.92,197.69L228.81,193.56L231.71,199.38L234.61,198.69L237.5,202.81L240.4,202.81L243.3,203.44L246.19,207.75L249.09,209.25L251.99,207.69L254.88,210.75L257.78,212.44L260.68,212.06L263.57,216.75L266.47,216.19L269.36,214.06L275.16,223.19L278.05,223.56L280.95,224.06L283.85,223.31L286.74,224.44L289.64,227.13L292.54,226.94L295.43,232.31L298.33,232.75L301.22,230.88L307.02,236L309.91,235.63L312.81,237.75L315.71,237.88L318.6,237.06L321.5,241.31L327.29,244.81L330.19,242.69L333.08,242.5L335.98,248.63L338.88,246.63L341.77,248.69L347.57,247.56L350.46,251.44L356.26,254.63L359.15,251.75L364.95,255.44L367.84,255.5L370.74,259.31L373.63,256.31L376.53,256.25L379.43,258.44L382.32,262.63L385.22,260.81L388.12,256.94L391.01,262.5L393.91,265.75L396.81,259.88L399.7,265.5L402.6,263.19L405.49,263.63L408.39,266.88L411.29,264.75L414.18,266.5L417.08,263.5L419.98,270.31L422.87,267.81L425.77,267.31L428.67,267.81L431.56,266.25L434.46,266.25L437.36,268.69L440.25,270.56L443.15,268.31L446.04,268.81L447,267.75" style="vector-effect: none; fill: none; stroke: rgb(99, 110, 250); stroke-opacity: 1; stroke-width: 2px; opacity: 1;"/></g><g class="points"/><g class="text"/></g><g class="trace scatter trace9e6fc7" style="stroke-miterlimit: 2; opacity: 1;"><g class="fills"/><g class="errorbars"/><g class="lines"><path class="js-line" d="M0,-1390.43L11.59,-280L14.48,-202.19L23.17,-79.94L26.07,-57.73L31.86,-20.05L34.76,-3.3L40.55,20.91L43.45,29.85L46.34,39.68L49.24,46.67L55.03,62.74L57.93,66.75L60.82,74.85L63.72,80.29L81.1,106.81L84,110.36L86.89,113.42L89.79,117.9L92.68,121.74L95.58,123.94L101.37,125.68L104.27,130.14L107.17,133.14L110.06,134.76L112.96,138.36L115.86,140.35L121.65,146.12L124.54,148.08L130.34,153.12L133.23,152.54L136.13,155.7L139.03,157.02L141.92,159.11L144.82,162.51L147.72,162.81L150.61,164.48L162.2,172.32L165.09,174.72L173.78,178.11L176.68,180.66L179.58,180.12L182.47,182.95L188.27,186.76L191.16,185.66L194.06,190.39L196.95,191.44L202.75,193.94L205.64,193.33L208.54,196.68L211.44,196.71L214.33,200.62L217.23,199.27L220.13,202.86L223.02,202.97L225.92,204.98L228.81,205.87L231.71,206.86L234.61,206.98L237.5,210.23L240.4,210.55L243.3,210.33L246.19,211.63L251.99,217.31L254.88,218.51L260.68,217.82L263.57,222.27L266.47,222.48L269.36,223.79L272.26,225.24L275.16,225.81L278.05,226.93L280.95,228.88L283.85,229.48L286.74,228.96L289.64,230.39L292.54,230.87L295.43,232.92L298.33,233.7L301.22,236.02L304.12,236.46L307.02,236.23L309.91,239.48L318.6,240.25L321.5,241.63L324.4,242.01L327.29,245.29L330.19,245.01L333.08,247.25L335.98,246.76L338.88,248L341.77,249.36L344.67,252.26L350.46,249.9L353.36,253.31L356.26,251.93L359.15,254.44L364.95,255.25L367.84,254.32L370.74,257.9L373.63,256.59L379.43,259.39L382.32,257.83L385.22,259.89L388.12,259.83L396.81,262.16L399.7,261.46L414.18,265.18L417.08,265.44L419.98,265.88L422.87,264.19L425.77,263.07L428.67,264.91L434.46,264.59L437.36,264.78L443.15,266.04L446.04,265.49L446.97,266.71" style="vector-effect: none; fill: none; stroke: rgb(239, 85, 59); stroke-opacity: 1; stroke-width: 2px; opacity: 1;"/></g><g class="points"/><g class="text"/></g><g class="trace scatter trace039750" style="stroke-miterlimit: 2; opacity: 1;"><g class="fills"/><g class="errorbars"/><g class="lines"><path class="js-line" d="M0,-1466.13L14.48,-318.25L17.38,-223.62L26.07,-85.38L28.96,-61.5L34.76,-20.19L37.65,-10.44L40.55,5.75L43.45,14.44L46.34,23.81L49.24,29.5L55.03,51.5L57.93,56.94L60.82,63.44L63.72,66.94L66.62,74.13L69.51,78.75L72.41,85.5L75.31,88.06L78.2,96.06L81.1,96.44L84,97.25L86.89,103.75L89.79,108.19L92.68,111.13L95.58,110.63L98.48,119.81L101.37,120.63L104.27,122.31L107.17,124.38L110.06,125.5L112.96,130.06L115.86,130L118.75,135L121.65,135.63L124.54,141.88L127.44,140.25L130.34,141.81L133.23,145.5L136.13,146.69L139.03,146.13L144.82,154.69L147.72,153.44L153.51,160.63L156.41,158.81L159.3,164.19L162.2,167L167.99,166.25L170.89,169.44L179.58,174.56L182.47,178L185.37,179L188.27,180.88L191.16,181.31L194.06,183.19L199.85,185.81L202.75,187L205.64,188.38L208.54,186.31L211.44,191.13L214.33,190.5L217.23,197.69L220.13,193.56L223.02,197.88L225.92,200.69L228.81,196.81L231.71,203.94L234.61,202.63L237.5,206.88L243.3,207.25L246.19,211.31L249.09,212.75L251.99,212.06L257.78,216.63L260.68,216L263.57,220.88L266.47,220.19L269.36,218L272.26,222.31L275.16,227.44L278.05,227.94L286.74,228.25L289.64,231.44L292.54,230.81L295.43,236.44L298.33,236.94L301.22,235.25L304.12,238.31L307.02,240.25L309.91,239.63L312.81,241.88L315.71,242.44L318.6,241.31L324.4,247.44L327.29,249.06L330.19,247.13L333.08,247.38L335.98,253.19L338.88,250.94L341.77,253.5L344.67,252.44L347.57,252.31L350.46,256.19L356.26,259.25L359.15,256.31L362.05,258.94L364.95,260.31L367.84,259.94L370.74,264.06L373.63,260.31L376.53,260.69L379.43,263.31L382.32,267.19L385.22,265.63L388.12,261.88L391.01,267.44L393.91,270.19L396.81,264.75L399.7,270.19L402.6,267.56L405.49,268L408.39,271.75L411.29,269.44L414.18,270.75L417.08,268.06L419.98,274.88L422.87,271.81L425.77,272.38L428.67,272.13L431.56,270.75L434.46,270.81L440.25,275.44L443.15,272.44L446.04,273.13L447,272.19" style="vector-effect: none; fill: none; stroke: rgb(0, 204, 150); stroke-opacity: 1; stroke-width: 2px; opacity: 1;"/></g><g class="points"/><g class="text"/></g></g></g></g><path class="xlines-above crisp" d="M0,0" style="fill: none;"/><path class="ylines-above crisp" d="M0,0" style="fill: none;"/><g class="overlines-above"/><g class="xaxislayer-above"><g class="xtick"><text text-anchor="middle" x="0" y="433" transform="translate(221.92,0)" style="font-family: 'Open Sans', verdana, arial, sans-serif; font-size: 12px; fill: rgb(42, 63, 95); fill-opacity: 1; white-space: pre; opacity: 1;">5k</text></g><g class="xtick"><text text-anchor="middle" x="0" y="433" style="font-family: 'Open Sans', verdana, arial, sans-serif; font-size: 12px; fill: rgb(42, 63, 95); fill-opacity: 1; white-space: pre; opacity: 1;" transform="translate(366.74,0)">10k</text></g><g class="xtick"><text text-anchor="middle" x="0" y="433" style="font-family: 'Open Sans', verdana, arial, sans-serif; font-size: 12px; fill: rgb(42, 63, 95); fill-opacity: 1; white-space: pre; opacity: 1;" transform="translate(511.56,0)">15k</text></g></g><g class="yaxislayer-above"><g class="ytick"><text text-anchor="end" x="79" y="4.199999999999999" transform="translate(0,420)" style="font-family: 'Open Sans', verdana, arial, sans-serif; font-size: 12px; fill: rgb(42, 63, 95); fill-opacity: 1; white-space: pre; opacity: 1;">3.2</text></g><g class="ytick"><text text-anchor="end" x="79" y="4.199999999999999" style="font-family: 'Open Sans', verdana, arial, sans-serif; font-size: 12px; fill: rgb(42, 63, 95); fill-opacity: 1; white-space: pre; opacity: 1;" transform="translate(0,380)">3.3</text></g><g class="ytick"><text text-anchor="end" x="79" y="4.199999999999999" style="font-family: 'Open Sans', verdana, arial, sans-serif; font-size: 12px; fill: rgb(42, 63, 95); fill-opacity: 1; white-space: pre; opacity: 1;" transform="translate(0,340)">3.4</text></g><g class="ytick"><text text-anchor="end" x="79" y="4.199999999999999" style="font-family: 'Open Sans', verdana, arial, sans-serif; font-size: 12px; fill: rgb(42, 63, 95); fill-opacity: 1; white-space: pre; opacity: 1;" transform="translate(0,300)">3.5</text></g><g class="ytick"><text text-anchor="end" x="79" y="4.199999999999999" style="font-family: 'Open Sans', verdana, arial, sans-serif; font-size: 12px; fill: rgb(42, 63, 95); fill-opacity: 1; white-space: pre; opacity: 1;" transform="translate(0,260)">3.6</text></g><g class="ytick"><text text-anchor="end" x="79" y="4.199999999999999" style="font-family: 'Open Sans', verdana, arial, sans-serif; font-size: 12px; fill: rgb(42, 63, 95); fill-opacity: 1; white-space: pre; opacity: 1;" transform="translate(0,220)">3.7</text></g><g class="ytick"><text text-anchor="end" x="79" y="4.199999999999999" style="font-family: 'Open Sans', verdana, arial, sans-serif; font-size: 12px; fill: rgb(42, 63, 95); fill-opacity: 1; white-space: pre; opacity: 1;" transform="translate(0,180)">3.8</text></g><g class="ytick"><text text-anchor="end" x="79" y="4.199999999999999" style="font-family: 'Open Sans', verdana, arial, sans-serif; font-size: 12px; fill: rgb(42, 63, 95); fill-opacity: 1; white-space: pre; opacity: 1;" transform="translate(0,140)">3.9</text></g><g class="ytick"><text text-anchor="end" x="79" y="4.199999999999999" style="font-family: 'Open Sans', verdana, arial, sans-serif; font-size: 12px; fill: rgb(42, 63, 95); fill-opacity: 1; white-space: pre; opacity: 1;" transform="translate(0,100)">4</text></g></g><g class="overaxes-above"/></g></g><g class="polarlayer"/><g class="smithlayer"/><g class="ternarylayer"/><g class="geolayer"/><g class="funnelarealayer"/><g class="pielayer"/><g class="iciclelayer"/><g class="treemaplayer"/><g class="sunburstlayer"/><g class="glimages"/><defs id="topdefs-35704f"><g class="clips"/><clipPath id="legend35704f"><rect width="152" height="86" x="0" y="0"/></clipPath></defs><g class="layer-above"><g class="imagelayer"/><g class="shapelayer"/></g><g class="infolayer"><g class="legend" pointer-events="all" transform="translate(535.94,100)"><rect class="bg" shape-rendering="crispEdges" style="stroke: rgb(68, 68, 68); stroke-opacity: 1; fill: rgb(255, 255, 255); fill-opacity: 1; stroke-width: 0px;" width="152" height="86" x="0" y="0"/><g class="scrollbox" transform="" clip-path="url(#legend35704f)"><text class="legendtitletext" text-anchor="start" x="2" y="18.2" style="font-family: 'Open Sans', verdana, arial, sans-serif; font-size: 14px; fill: rgb(42, 63, 95); fill-opacity: 1; white-space: pre;">id</text><g class="groups" transform=""><g class="traces" transform="translate(0,32.7)" style="opacity: 1;"><text class="legendtext" text-anchor="start" x="40" y="4.680000000000001" style="font-family: 'Open Sans', verdana, arial, sans-serif; font-size: 12px; fill: rgb(42, 63, 95); fill-opacity: 1; white-space: pre;">llmr_def_1024</text><g class="layers" style="opacity: 1;"><g class="legendfill"/><g class="legendlines"><path class="js-line" d="M5,0h30" style="fill: none; stroke: rgb(99, 110, 250); stroke-opacity: 1; stroke-width: 2px;"/></g><g class="legendsymbols"><g class="legendpoints"/></g></g><rect class="legendtoggle" x="0" y="-9.5" width="146.796875" height="19" style="fill: rgb(0, 0, 0); fill-opacity: 0;"/></g></g><g class="groups" transform=""><g class="traces" transform="translate(0,51.7)" style="opacity: 1;"><text class="legendtext" text-anchor="start" x="40" y="4.680000000000001" style="font-family: 'Open Sans', verdana, arial, sans-serif; font-size: 12px; fill: rgb(42, 63, 95); fill-opacity: 1; white-space: pre;">nemo_def_1024_t</text><g class="layers" style="opacity: 1;"><g class="legendfill"/><g class="legendlines"><path class="js-line" d="M5,0h30" style="fill: none; stroke: rgb(239, 85, 59); stroke-opacity: 1; stroke-width: 2px;"/></g><g class="legendsymbols"><g class="legendpoints"/></g></g><rect class="legendtoggle" x="0" y="-9.5" width="146.796875" height="19" style="fill: rgb(0, 0, 0); fill-opacity: 0;"/></g></g><g class="groups" transform=""><g class="traces" transform="translate(0,70.7)" style="opacity: 1;"><text class="legendtext" text-anchor="start" x="40" y="4.680000000000001" style="font-family: 'Open Sans', verdana, arial, sans-serif; font-size: 12px; fill: rgb(42, 63, 95); fill-opacity: 1; white-space: pre;">llmr_def_1024_2</text><g class="layers" style="opacity: 1;"><g class="legendfill"/><g class="legendlines"><path class="js-line" d="M5,0h30" style="fill: none; stroke: rgb(0, 204, 150); stroke-opacity: 1; stroke-width: 2px;"/></g><g class="legendsymbols"><g class="legendpoints"/></g></g><rect class="legendtoggle" x="0" y="-9.5" width="146.796875" height="19" style="fill: rgb(0, 0, 0); fill-opacity: 0;"/></g></g></g><rect class="scrollbar" rx="20" ry="3" width="0" height="0" style="fill: rgb(128, 139, 164); fill-opacity: 1;" x="0" y="0"/></g><g class="g-gtitle"><text class="gtitle" x="35" y="50" text-anchor="start" dy="0em" style="opacity: 1; font-family: 'Open Sans', verdana, arial, sans-serif; font-size: 17px; fill: rgb(42, 63, 95); fill-opacity: 1; white-space: pre;">Nemo vs LLMR default pretraining</text></g><g class="g-xtitle"><text class="xtitle" x="303.5" y="460.3" text-anchor="middle" style="opacity: 1; font-family: 'Open Sans', verdana, arial, sans-serif; font-size: 14px; fill: rgb(42, 63, 95); fill-opacity: 1; white-space: pre;">Training Step</text></g><g class="g-ytitle"><text class="ytitle" transform="rotate(-90,40.50625,260)" x="40.50625" y="260" text-anchor="middle" style="opacity: 1; font-family: 'Open Sans', verdana, arial, sans-serif; font-size: 14px; fill: rgb(42, 63, 95); fill-opacity: 1; white-space: pre;">Loss</text></g></g></svg>